<?xml version="1.0" encoding="utf-8"?>
<!-- Generator: Adobe Illustrator 17.1.0, SVG Export Plug-In . SVG Version: 6.00 Build 0)  -->
<svg version="1.2" baseProfile="tiny" id="Layer_1" xmlns="http://www.w3.org/2000/svg" xmlns:xlink="http://www.w3.org/1999/xlink"
	 x="0px" y="0px" viewBox="0 0 60 72" xml:space="preserve">
<g>
	<polygon fill="#D9A741" points="51.448,30.945 59.823,31.782 59.823,14.912 51.448,10.724 	"/>
	<polygon fill="#876929" points="35.955,14.902 51.448,10.709 51.448,30.945 35.955,31.783 	"/>
	<polygon fill="#624A1E" points="59.823,31.782 45.342,32.382 35.955,31.783 51.448,30.945 	"/>
	<polygon fill="#D9A741" points="30,12.456 46.776,17.942 46.776,26.28 30,23.327 	"/>
	<polygon fill="#624A1E" points="22.44,24.696 30.121,23.349 46.776,26.28 39.328,27.095 	"/>
	<polygon fill="#876929" points="8.552,31.02 0.177,31.757 0.177,14.836 8.552,10.655 	"/>
	<polygon fill="#D9A741" points="24.045,14.902 8.552,10.709 8.552,30.945 24.045,31.783 	"/>
	<polygon fill="#624A1E" points="0.177,31.782 14.658,32.382 24.045,31.783 8.552,30.945 	"/>
	<polygon fill="#876929" points="30,12.456 13.224,17.942 13.224,26.28 30,23.327 	"/>
	<polygon fill="#624A1E" points="37.56,24.696 29.879,23.349 13.224,26.28 20.672,27.095 	"/>
	<polygon fill="#D9A741" points="51.448,41.343 59.823,40.506 59.823,57.376 51.448,61.564 	"/>
	<polygon fill="#876929" points="35.955,57.386 51.448,61.579 51.448,41.343 35.955,40.505 	"/>
	<polygon fill="#FAD791" points="59.823,40.506 45.342,39.906 35.955,40.505 51.448,41.343 	"/>
	<polygon fill="#D9A741" points="30,59.832 46.776,54.346 46.776,46.008 30,48.961 	"/>
	<polygon fill="#FAD791" points="22.44,47.592 30.121,48.939 46.776,46.008 39.328,45.193 	"/>
	<polygon fill="#876929" points="8.552,41.343 0.177,40.506 0.177,57.376 8.552,61.564 	"/>
	<polygon fill="#D9A741" points="24.045,57.386 8.552,61.579 8.552,41.343 24.045,40.505 	"/>
	<polygon fill="#FAD791" points="0.177,40.506 14.658,39.906 24.045,40.505 8.552,41.343 	"/>
	<polygon fill="#876929" points="30,59.832 13.224,54.346 13.224,46.008 30,48.961 	"/>
	<polygon fill="#FAD791" points="37.56,47.592 29.879,48.939 13.224,46.008 20.672,45.193 	"/>
	<polygon fill="#D9A741" points="38.921,67.54 30,72 30,0 38.921,4.46 	"/>
	<polygon fill="#876929" points="21.079,67.54 30,72 30,0 21.079,4.46 	"/>
</g>
</svg>
